<svg width="34" height="35" viewBox="0 0 34 35" fill="none" xmlns="http://www.w3.org/2000/svg">
<path d="M17 11C24.1797 11 30 8.98528 30 6.5C30 4.01472 24.1797 2 17 2C9.8203 2 4 4.01472 4 6.5C4 8.98528 9.8203 11 17 11Z" stroke="#FF5944" stroke-width="3"/>
<path d="M4 7V28.0751C4.06006 28.7219 4.45569 29.3623 5.16429 29.9598C5.87288 30.5573 6.88058 31.1002 8.12984 31.5575C9.3791 32.0149 10.8455 32.3776 12.4452 32.6251C14.0449 32.8726 15.7467 33 17.4533 33C19.16 33 20.8381 32.8726 22.3919 32.6251C23.9456 32.3776 25.3446 32.0149 26.5089 31.5575C27.6732 31.1002 28.5801 30.5573 29.1777 29.9598C29.7753 29.3623 30.052 28.7219 29.992 28.0751V7M4 14.025C4.06006 14.6718 4.45569 15.3122 5.16429 15.9097C5.87288 16.5072 6.88058 17.0501 8.12984 17.5075C9.3791 17.9648 10.8455 18.3275 12.4452 18.575C14.0449 18.8225 15.7467 18.9499 17.4533 18.9499C19.16 18.9499 20.8381 18.8225 22.3919 18.575C23.9456 18.3275 25.3446 17.9648 26.5089 17.5075C27.6732 17.0501 28.5801 16.5072 29.1777 15.9097C29.7753 15.3122 30.052 14.6718 29.992 14.025M4 21.0501C4.06006 21.6968 4.45569 22.3372 5.16429 22.9348C5.87288 23.5323 6.88058 24.0752 8.12984 24.5325C9.3791 24.9898 10.8455 25.3526 12.4452 25.6001C14.0449 25.8476 15.7467 25.975 17.4533 25.975C19.16 25.975 20.8381 25.8476 22.3919 25.6001C23.9456 25.3526 25.3446 24.9898 26.5089 24.5325C27.6732 24.0752 28.5801 23.5323 29.1777 22.9348C29.7753 22.3372 30.052 21.6968 29.992 21.0501" stroke="#FF5944" stroke-width="3"/>
</svg>
