<svg width="26" height="31" viewBox="0 0 26 31" fill="none" xmlns="http://www.w3.org/2000/svg">
<g clip-path="url(#clip0_111_16)">
<path d="M12.92 10.4301C18.9509 10.4301 23.84 8.54296 23.84 6.21505C23.84 3.88714 18.9509 2 12.92 2C6.88905 2 2 3.88714 2 6.21505C2 8.54296 6.88905 10.4301 12.92 10.4301Z" stroke="#087CD8" stroke-width="3"/>
<path d="M2 6.74194V25.1064C2.05045 25.67 2.38278 26.228 2.978 26.7487C3.57322 27.2693 4.41969 27.7424 5.46906 28.1409C6.51844 28.5394 7.75018 28.8555 9.09395 29.0712C10.4377 29.2869 11.8672 29.3979 13.3008 29.3979C14.7344 29.3979 16.144 29.2869 17.4492 29.0712C18.7543 28.8555 19.9295 28.5394 20.9075 28.1409C21.8855 27.7424 22.6473 27.2693 23.1493 26.7487C23.6513 26.228 23.8837 25.67 23.8332 25.1064V6.74194M2 12.8634C2.05045 13.427 2.38278 13.985 2.978 14.5057C3.57322 15.0264 4.41969 15.4994 5.46906 15.8979C6.51844 16.2964 7.75018 16.6125 9.09395 16.8282C10.4377 17.0439 11.8672 17.1549 13.3008 17.1549C14.7344 17.1549 16.144 17.0439 17.4492 16.8282C18.7543 16.6125 19.9295 16.2964 20.9075 15.8979C21.8855 15.4994 22.6473 15.0264 23.1493 14.5057C23.6513 13.985 23.8837 13.427 23.8332 12.8634M2 18.9849C2.05045 19.5485 2.38278 20.1065 2.978 20.6272C3.57322 21.1479 4.41969 21.6209 5.46906 22.0194C6.51844 22.4179 7.75018 22.734 9.09395 22.9497C10.4377 23.1654 11.8672 23.2764 13.3008 23.2764C14.7344 23.2764 16.144 23.1654 17.4492 22.9497C18.7543 22.734 19.9295 22.4179 20.9075 22.0194C21.8855 21.6209 22.6473 21.1479 23.1493 20.6272C23.6513 20.1065 23.8837 19.5485 23.8332 18.9849" stroke="#087CD8" stroke-width="3"/>
</g>
<defs>
<clipPath id="clip0_111_16">
<rect width="26" height="31" fill="white"/>
</clipPath>
</defs>
</svg>
