<svg width="30" height="28" viewBox="0 0 30 28" fill="none" xmlns="http://www.w3.org/2000/svg">
<path d="M2 0V21.0751C2.06006 21.7219 2.45569 22.3623 3.16429 22.9598C3.87288 23.5573 4.88058 24.1002 6.12984 24.5575C7.3791 25.0149 8.84545 25.3776 10.4452 25.6251C12.0449 25.8726 13.7467 26 15.4533 26C17.16 26 18.8381 25.8726 20.3919 25.6251C21.9456 25.3776 23.3446 25.0149 24.5089 24.5575C25.6732 24.1002 26.5801 23.5573 27.1777 22.9598C27.7753 22.3623 28.052 21.7219 27.992 21.0751V0M2 7.02504C2.06006 7.67179 2.45569 8.3122 3.16429 8.90971C3.87288 9.50722 4.88058 10.0501 6.12984 10.5075C7.3791 10.9648 8.84545 11.3275 10.4452 11.575C12.0449 11.8225 13.7467 11.9499 15.4533 11.9499C17.16 11.9499 18.8381 11.8225 20.3919 11.575C21.9456 11.3275 23.3446 10.9648 24.5089 10.5075C25.6732 10.0501 26.5801 9.50722 27.1777 8.90971C27.7753 8.3122 28.052 7.67179 27.992 7.02504M2 14.0501C2.06006 14.6968 2.45569 15.3372 3.16429 15.9348C3.87288 16.5323 4.88058 17.0752 6.12984 17.5325C7.3791 17.9898 8.84545 18.3526 10.4452 18.6001C12.0449 18.8476 13.7467 18.975 15.4533 18.975C17.16 18.975 18.8381 18.8476 20.3919 18.6001C21.9456 18.3526 23.3446 17.9898 24.5089 17.5325C25.6732 17.0752 26.5801 16.5323 27.1777 15.9348C27.7753 15.3372 28.052 14.6968 27.992 14.0501" stroke="#FF5944" stroke-width="3"/>
</svg>
