<?xml version="1.0" encoding="UTF-8" standalone="no"?>
<svg
   viewBox="0 0 200704 229376"
   version="1.1"
   id="svg4"
   sodipodi:docname="linkedn.svg"
   inkscape:export-filename="linkedn2.svg"
   inkscape:export-xdpi="77.8125"
   inkscape:export-ydpi="77.8125"
   width="200704"
   height="229376"
   xmlns:inkscape="http://www.inkscape.org/namespaces/inkscape"
   xmlns:sodipodi="http://sodipodi.sourceforge.net/DTD/sodipodi-0.dtd"
   xmlns="http://www.w3.org/2000/svg"
   xmlns:svg="http://www.w3.org/2000/svg">
  <defs
     id="defs8" />
  <sodipodi:namedview
     id="namedview6"
     pagecolor="#ffffff"
     bordercolor="#000000"
     borderopacity="0.25"
     inkscape:showpageshadow="2"
     inkscape:pageopacity="0.0"
     inkscape:pagecheckerboard="0"
     inkscape:deskcolor="#d1d1d1"
     showgrid="false" />
  <!--!Font Awesome Free 6.7.1 by @fontawesome - https://fontawesome.com License - https://fontawesome.com/license/free Copyright 2024 Fonticons, Inc.-->
  <path
     d="m -130.8674,-97.682208 h -384.1 c -17.6,0 -31.9,14.5 -31.9,32.3 V 318.01779 c 0,17.8 14.3,32.3 31.9,32.3 h 384.1 c 17.6,0 32,-14.5 32,-32.3 V -65.382208 c 0,-17.8 -14.4,-32.3 -32,-32.3 z m -280.6,383.999998 h -66.4 V 72.517793 h 66.5 V 286.31779 Z m -33.2,-242.999997 c -21.3,0 -38.5,-17.3 -38.5,-38.5000003 0,-21.2000007 17.2,-38.5000007 38.5,-38.5000007 21.2,0 38.5,17.3 38.5,38.5000007 0,21.3000003 -17.2,38.5000003 -38.5,38.5000003 z m 282.1,242.999997 h -66.4 v -104 c 0,-24.8 -0.5,-56.7 -34.5,-56.7 -34.6,0 -39.9,27 -39.9,54.9 v 105.8 h -66.4 V 72.517793 h 63.7 v 29.199997 h 0.9 c 8.9,-16.799997 30.6,-34.499997 62.9,-34.499997 67.2,0 79.7,44.299997 79.7,101.899997 z"
     id="path2" />
</svg>
