<svg width="52" height="52" viewBox="0 0 52 52" fill="none" xmlns="http://www.w3.org/2000/svg">
<g clip-path="url(#clip0_74_296)">
<path d="M43.875 4.875H21.125C19.3273 4.875 17.875 6.32734 17.875 8.125V9.75H13V8.125C13 3.63594 16.6359 0 21.125 0H43.875C48.3641 0 52 3.63594 52 8.125V30.875C52 35.3641 48.3641 39 43.875 39H42.25V34.125H43.875C45.6727 34.125 47.125 32.6727 47.125 30.875V8.125C47.125 6.32734 45.6727 4.875 43.875 4.875ZM4.875 45.5C4.875 46.3938 5.60625 47.125 6.5 47.125H32.5C33.3938 47.125 34.125 46.3938 34.125 45.5V26H4.875V45.5ZM6.5 13H32.5C36.0852 13 39 15.9148 39 19.5V45.5C39 49.0852 36.0852 52 32.5 52H6.5C2.91484 52 0 49.0852 0 45.5V19.5C0 15.9148 2.91484 13 6.5 13Z" fill="#28231D"/>
</g>
<defs>
<clipPath id="clip0_74_296">
<rect width="52" height="52" fill="white"/>
</clipPath>
</defs>
</svg>
